<?xml version="1.0" encoding="utf-8"?>
<!-- Generator: Adobe Illustrator 19.2.1, SVG Export Plug-In . SVG Version: 6.00 Build 0)  -->
<svg version="1.1" id="text" xmlns="http://www.w3.org/2000/svg" xmlns:xlink="http://www.w3.org/1999/xlink" x="0px" y="0px"
	 viewBox="0 0 238.6 19.9" style="enable-background:new 0 0 238.6 19.9;" xml:space="preserve">
<style type="text/css">
	.st0{fill:#FFFFFF;}
</style>
<title>Faculty of Medicine</title>
<desc>Faculty of Medicine</desc>
<g>
	<path class="st0" d="M7,16.1c-4.4,0-7-2.3-7-6.2V0.5h3.6v9.2c0,2.3,1.2,3.5,3.4,3.5s3.4-1.2,3.4-3.5V0.5H14v9.3
		C14,13.7,11.3,16.1,7,16.1"/>
	<path class="st0" d="M20.6,6.7h1.3c1.8,0,2.7-0.7,2.7-1.9S23.8,3.1,22,3.1h-1.5v3.6H20.6z M20.6,13.3h1.6c1.4,0,3.1-0.4,3.1-2.1
		c0-1.8-1.7-2.1-3.1-2.1h-1.5v4.2H20.6z M22.2,15.9h-5V0.5h5.1C26,0.5,28,2,28,4.6C28,6,27.3,7,25.9,7.7c1.8,0.7,2.8,1.9,2.8,3.6
		C28.7,14.2,26.4,15.9,22.2,15.9"/>
	<path class="st0" d="M38.8,16.1c-5,0-8.2-3.1-8.2-7.9s3.3-8,8.3-8c1.8,0,3.4,0.4,4.7,1.1l0.1,0.1l-0.5,3.1L43,4.4
		c-1.3-0.9-2.6-1.3-3.9-1.3c-3,0-4.7,1.9-4.7,5.1c0,3.1,1.8,5.1,4.8,5.1c1.4,0,2.8-0.4,4.2-1.3l0.2-0.1l0.5,2.9L44,14.9
		C42.5,15.7,40.6,16.1,38.8,16.1"/>
	<g>
		<path class="st0" d="M52.1,3.2v3.9h4.3l0.4,2.5h-4.7v6.3h-2.9V0.7h8.5v2.5H52.1z"/>
		<path class="st0" d="M65.6,15.9l-0.2-1.4c-0.9,0.9-2,1.6-3.5,1.6c-1.8,0-3-1.1-3-2.9c0-2.6,2.1-3.7,6.4-4.1V8.7
			c0-1.1-0.7-1.6-1.8-1.6c-1.2,0-2.4,0.4-3.5,0.9l-0.3-2.1c1-0.5,2.3-0.9,4-0.9c2.8,0,4.1,1,4.1,3.6v7.3
			C67.8,15.9,65.6,15.9,65.6,15.9z M65.2,10.6c-3.1,0.4-3.8,1.3-3.8,2.3c0,0.8,0.5,1.2,1.3,1.2c0.9,0,1.8-0.4,2.5-1.1V10.6z"/>
		<path class="st0" d="M75.5,16.1c-3,0-5.1-2-5.1-5.5c0-3.7,2.3-5.6,5.1-5.6C77,5,78.1,5.4,79,5.9l-0.4,2.4c-0.9-0.7-1.8-1-2.8-1
			c-1.5,0-2.6,1.1-2.6,3.2c0,2.2,1.2,3.3,2.8,3.3c0.9,0,1.8-0.2,2.8-1L79,15C78,15.8,76.9,16.1,75.5,16.1z"/>
		<path class="st0" d="M88.7,15.9l-0.2-1.5c-1,0.9-2.1,1.7-3.5,1.7c-2,0-3-1.2-3-3.2V5.3h2.6v7c0,0.9,0.4,1.5,1.3,1.5
			c0.8,0,1.7-0.5,2.4-1.3V5.3H91v10.6C91,15.9,88.7,15.9,88.7,15.9z"/>
		<path class="st0" d="M94.7,15.9V0.4L97.4,0v15.9H94.7z"/>
		<path class="st0" d="M105.1,16.1c-2.1,0-3.5-0.8-3.5-3.2V7.4h-1.5V5.3h1.5V1.9l2.6-0.4v3.8h2.2l0.3,2.2h-2.5v5
			c0,0.9,0.4,1.3,1.4,1.3c0.3,0,0.6,0,0.8-0.1l0.3,2.2C106.4,16,105.9,16.1,105.1,16.1z"/>
		<path class="st0" d="M114.9,16.5c-0.9,2.6-2.2,3.4-4.2,3.4c-0.5,0-0.7,0-1-0.1l-0.4-2.2c0.4,0.1,0.7,0.2,1.2,0.2
			c0.8,0,1.4-0.4,1.7-1.1l0.2-0.7l-3.9-10.5l2.8-0.4l2.5,7.6l2.4-7.4h2.6L114.9,16.5z"/>
		<path class="st0" d="M128.6,16.1c-2.9,0-5-2.1-5-5.5c0-3.5,2.1-5.5,5-5.5c2.9,0,5,2.1,5,5.5C133.7,14,131.6,16.1,128.6,16.1z
			 M128.6,7.2c-1.6,0-2.4,1.4-2.4,3.4c0,1.9,0.9,3.4,2.4,3.4c1.6,0,2.5-1.4,2.5-3.4S130.2,7.2,128.6,7.2z"/>
		<path class="st0" d="M141,2.4c-0.9,0-1.4,0.4-1.4,1.3v1.6h2l0.3,2.2h-2.4V16H137V7.4h-1.5V5.3h1.5V3.4c0-2.4,1.5-3.2,3.7-3.2
			c0.4,0,0.8,0,1.1,0.1l0.4,2.2C141.8,2.4,141.4,2.4,141,2.4z"/>
		<path class="st0" d="M162.9,15.9V5l-4.3,11h-2.4l-4.3-11v10.9h-2.5V0.7h3.8l4.4,11.4L162,0.7h3.7v15.2H162.9z"/>
		<path class="st0" d="M173.9,16.1c-3,0-5.2-1.7-5.2-5.5c0-3.5,2.1-5.5,4.8-5.5c3.2,0,4.6,2.4,4.6,5.4c0,0.2,0,0.5,0,0.6h-6.8
			c0.1,2.1,1.3,3,2.9,3c1.4,0,2.5-0.5,3.7-1.3l0.3,2.1C177,15.6,175.6,16.1,173.9,16.1z M171.3,9.4h4.2c-0.2-1.7-0.8-2.6-2.1-2.6
			C172.4,6.9,171.5,7.7,171.3,9.4z"/>
		<path class="st0" d="M188.1,15.9l-0.2-1.5c-0.7,0.9-1.8,1.7-3.3,1.7c-2.2,0-4-1.7-4-5.2c0-4,2.2-5.7,4.6-5.7c1,0,1.8,0.2,2.5,0.4
			V0.4l2.6-0.4v15.9H188.1z M187.7,7.7c-0.7-0.3-1.2-0.5-2.1-0.5c-1.4,0-2.4,1.1-2.4,3.5c0,2.1,0.9,3,2,3c1,0,1.7-0.6,2.4-1.5V7.7
			H187.7z"/>
		<path class="st0" d="M195.5,3.5c-0.9,0-1.6-0.6-1.6-1.5s0.7-1.5,1.6-1.5c0.9,0,1.6,0.6,1.6,1.5C197,2.9,196.3,3.5,195.5,3.5z
			 M194.1,15.9V5.3h2.6v10.6C196.7,15.9,194.1,15.9,194.1,15.9z"/>
		<path class="st0" d="M204.6,16.1c-3,0-5.1-2-5.1-5.5c0-3.7,2.3-5.6,5.1-5.6c1.4,0,2.5,0.4,3.3,0.9l-0.4,2.4c-0.9-0.7-1.8-1-2.8-1
			c-1.5,0-2.6,1.1-2.6,3.2c0,2.2,1.2,3.3,2.8,3.3c0.9,0,1.8-0.2,2.8-1L208,15C207,15.8,205.9,16.1,204.6,16.1z"/>
		<path class="st0" d="M212.2,3.5c-0.9,0-1.6-0.6-1.6-1.5s0.7-1.5,1.6-1.5c0.9,0,1.6,0.6,1.6,1.5S213.1,3.5,212.2,3.5z M210.9,15.9
			V5.3h2.6v10.6C213.5,15.9,210.9,15.9,210.9,15.9z"/>
		<path class="st0" d="M223.7,15.9v-7c0-0.9-0.4-1.6-1.4-1.6c-0.8,0-1.7,0.5-2.4,1.3v7.2h-2.6V5.3h2.2l0.2,1.5
			c1-0.9,2.1-1.7,3.5-1.7c2,0,3,1.2,3,3.2V16h-2.5V15.9z"/>
		<path class="st0" d="M234.3,16.1c-3,0-5.2-1.7-5.2-5.5c0-3.5,2.1-5.5,4.8-5.5c3.2,0,4.6,2.4,4.6,5.4c0,0.2,0,0.5,0,0.6h-6.8
			c0.1,2.1,1.3,3,2.9,3c1.4,0,2.5-0.5,3.7-1.3l0.3,2.1C237.4,15.6,236,16.1,234.3,16.1z M231.8,9.4h4.2c-0.2-1.7-0.8-2.6-2.1-2.6
			C232.8,6.9,232,7.7,231.8,9.4z"/>
	</g>
</g>
</svg>
