<svg id="ubc-logo" version="1.1" xmlns="http://www.w3.org/2000/svg" xmlns:xlink="http://www.w3.org/1999/xlink" x="0px" y="0px"
                                                             viewBox="0 0 99 135" enable-background="new 0 0 99 135" xml:space="preserve">
                                                            <g>
                                                                <path fill="#FFFFFF" d="M49.5,50.1l5.3,38.3l17.3-29l-7.4,31.9l18.7-17.9L73.7,97l15.6-11.6c-7.2,19.7-13.6,30.8-39.8,39.7l0,0
                                                                    l0,0c-26.2-9-32.5-20-39.8-39.7L25.3,97l-9.7-23.6l18.7,17.9l-7.4-31.9l17.3,29L49.5,50.1L49.5,50.1z"/>
                                                                <g>
                                                                    <path fill="#FFFFFF" d="M22,37.3c-7.9,0-12.7-4.3-12.7-11.4V8.8h6.6v16.8c0,4.2,2.2,6.4,6.2,6.4c4.1,0,6.2-2.2,6.2-6.3v-17h6.6
                                                                        v17C34.9,32.9,30,37.3,22,37.3"/>
                                                                    <path fill="#FFFFFF" d="M46.9,20.1h2.4c3.2,0,5-1.2,5-3.4c0-2.1-1.5-3.2-4.7-3.2h-2.7V20.1z M46.9,32.2h2.8
                                                                        c2.6,0,5.6-0.7,5.6-3.8c0-3.2-3.1-3.9-5.7-3.9h-2.7V32.2z M49.7,36.8h-9.2v-28h9.3c6.8,0,10.6,2.7,10.6,7.4
                                                                        c0,2.5-1.3,4.5-3.8,5.7c3.4,1.2,5.1,3.4,5.1,6.6C61.7,33.9,57.5,36.8,49.7,36.8"/>
                                                                    <path fill="#FFFFFF" d="M80.2,37.3c-9.1,0-14.9-5.7-14.9-14.5c0-8.7,6.1-14.5,15.1-14.5c3.4,0,6.2,0.7,8.6,2l0.2,0.1l-1,5.7
                                                                        l-0.4-0.3c-2.4-1.6-4.7-2.4-7.2-2.4c-5.4,0-8.6,3.5-8.6,9.3c0,5.7,3.3,9.3,8.7,9.3c2.5,0,5-0.8,7.7-2.3l0.4-0.3l0.9,5.3l-0.2,0.1
                                                                        C86.8,36.5,83.5,37.3,80.2,37.3"/>
                                                                </g>
                                                                <path fill="#FFFFFF" d="M0,0v73.2c0,30.8,16.7,53,49.5,61.8C82.3,126.3,99,104,99,73.2V0H0z M49.5,131.1
                                                                    c-31-8.8-45.8-29.2-45.8-58.4v-69h91.5v69C95.3,101.9,80.5,122.3,49.5,131.1z"/>
                                                                <path fill="#FFFFFF" d="M49.5,46.8c6.9,0,7.8,2.8,13.4,2.8c5.5,0,6.5-2.8,13.4-2.8c6.9,0,7.9,2.8,13.4,2.8v-6.4
                                                                    c-5.5,0-6.5-2.7-13.4-2.7c-6.9,0-7.9,2.8-13.4,2.7c-5.6,0-6.5-2.7-13.4-2.7c-6.9,0-7.8,2.8-13.4,2.7c-5.5,0-6.5-2.7-13.4-2.7
                                                                    c-6.9,0-7.9,2.8-13.4,2.7v6.4c5.5,0,6.5-2.8,13.4-2.8c6.9,0,7.9,2.8,13.4,2.8C41.7,49.6,42.6,46.8,49.5,46.8z"/>
                                                                <g>
                                                                    <path fill="#FFFFFF" d="M53.9,58.4c3.3,0.8,4.9,2.3,9,2.3c5.5,0,6.5-2.8,13.4-2.8c6.9,0,7.9,2.8,13.4,2.8v-6.4
                                                                        c-5.5,0-6.5-2.7-13.4-2.7c-6.9,0-7.9,2.8-13.4,2.7c-4.5,0-5.9-1.7-9.9-2.4L53.9,58.4z"/>
                                                                    <path fill="#FFFFFF" d="M36.1,60.7c4.1,0,5.7-1.5,9-2.3l0.9-6.6c-4,0.7-5.5,2.5-9.9,2.4c-5.5,0-6.5-2.7-13.4-2.7
                                                                        c-6.9,0-7.9,2.8-13.4,2.7v6.4c5.5,0,6.5-2.8,13.4-2.8C29.6,57.9,30.6,60.7,36.1,60.7z"/>
                                                                </g>
                                                                <g>
                                                                    <path fill="#FFFFFF" d="M55.5,70c1.9,0.6,3.3,1.4,5.6,1.7l3.9-6.4c-0.6,0.1-1.3,0.1-2,0.1c-3.8,0-5.5-1.3-8.3-2.1L55.5,70z"/>
                                                                    <path fill="#FFFFFF" d="M73.1,69.3c0.9-0.1,1.9-0.2,3.1-0.2c6.9,0,7.9,2.8,13.4,2.8v-6.4c-5.5,0-6.5-2.7-13.4-2.7
                                                                        c-0.6,0-1.1,0-1.6,0.1L73.1,69.3z"/>
                                                                    <path fill="#FFFFFF" d="M25.9,69.3l-1.5-6.6c-0.5,0-1-0.1-1.6-0.1c-6.9,0-7.9,2.8-13.4,2.7v6.4c5.5,0,6.5-2.8,13.4-2.8
                                                                        C23.9,69,25,69.1,25.9,69.3z"/>
                                                                    <path fill="#FFFFFF" d="M38,71.7c2.2-0.3,3.7-1.1,5.6-1.7l0.9-6.7c-2.9,0.8-4.5,2.1-8.3,2.1c-0.7,0-1.4,0-2-0.1L38,71.7z"/>
                                                                </g>
                                                            </g>
                                                        </svg>